<?xml version="1.0" encoding="utf-8"?>
<!-- Generator: Adobe Illustrator 24.0.1, SVG Export Plug-In . SVG Version: 6.00 Build 0)  -->
<svg version="1.1" id="Layer_1" xmlns="http://www.w3.org/2000/svg" xmlns:xlink="http://www.w3.org/1999/xlink" x="0px" y="0px"
	viewBox="0 0 1500 1500" style="enable-background:new 0 0 1500 1500;background-size: 500px;" xml:space="preserve">
<style type="text/css">
	.st0{fill:#003A5D;}
	.st1{clip-path:url(#SVGID_2_);fill:#003A5D;}
	.st2{opacity:0.29;clip-path:url(#SVGID_4_);fill:url(#SVGID_5_);enable-background:new    ;}
	.st3{clip-path:url(#SVGID_7_);}
	.st4{opacity:0.6;fill:url(#SVGID_8_);enable-background:new    ;}
	.st5{clip-path:url(#SVGID_10_);}
	.st6{opacity:0.6;fill:url(#SVGID_11_);enable-background:new    ;}
</style>
<g>
	<path class="st0" d="M411.3,859.4H383v-20.6h82.4v20.6h-28.1v71.4h-26V859.4z"/>
	<path class="st0" d="M537.9,908.8c3.7-1.4,7.1-3.6,10.3-6.7l14.1,15.3c-8.6,9.8-21.1,14.7-37.6,14.7c-10.3,0-19.4-2-27.3-6
		s-14-9.6-18.3-16.7c-4.3-7.1-6.4-15.2-6.4-24.2c0-8.9,2.1-17,6.4-24.2c4.2-7.2,10.1-12.8,17.5-16.8s15.7-6,25-6
		c8.7,0,16.6,1.8,23.7,5.5c7.1,3.7,12.8,9,17,15.9s6.4,15.2,6.4,24.7L501,897.4c1.9,4.5,4.9,7.9,9.1,10.2c4.1,2.3,9.2,3.4,15.2,3.4
		C530,910.9,534.2,910.2,537.9,908.8z M505.1,864.6c-4.2,4.3-6.4,10.2-6.6,17.8l44.4-8.6c-1.2-4.7-3.8-8.5-7.6-11.4
		c-3.8-2.8-8.5-4.2-13.9-4.2C514.7,858.2,509.2,860.3,505.1,864.6z"/>
	<path class="st0" d="M668.2,930.8L668,882l-23.7,39.7h-11.6l-23.5-38.4v47.4h-24v-92h21.4l32.3,53.1l31.5-53.1h21.4l0.3,92
		L668.2,930.8L668.2,930.8z"/>
	<path class="st0" d="M776.9,842.9c6.1,2.8,10.9,6.7,14.2,11.8s5,11.1,5,18.1c0,6.9-1.7,12.9-5,18s-8.1,9-14.2,11.8
		c-6.1,2.8-13.4,4.1-21.7,4.1h-16v24h-26v-92h42C763.5,838.8,770.7,840.2,776.9,842.9z M765.7,882.7c2.7-2.3,4.1-5.6,4.1-9.9
		c0-4.3-1.4-7.6-4.1-10c-2.7-2.4-6.7-3.5-12.1-3.5h-14.5v26.9h14.5C759,886.2,763,885.1,765.7,882.7z"/>
	<path class="st0" d="M832.8,926.4c-7.8-4.1-13.8-9.8-18.3-17.1c-4.4-7.3-6.6-15.5-6.6-24.6s2.2-17.3,6.6-24.6
		c4.4-7.3,10.5-13,18.3-17.1s16.5-6.2,26.2-6.2s18.5,2.1,26.2,6.2c7.8,4.1,13.8,9.8,18.3,17.1c4.4,7.3,6.6,15.5,6.6,24.6
		s-2.2,17.3-6.6,24.6c-4.4,7.3-10.5,13-18.3,17.1s-16.5,6.2-26.2,6.2C849.3,932.6,840.5,930.5,832.8,926.4z M871.6,907.8
		c3.8-2.2,6.7-5.3,8.9-9.3s3.3-8.6,3.3-13.7c0-5.2-1.1-9.7-3.3-13.7s-5.2-7.1-8.9-9.3c-3.8-2.2-8-3.3-12.6-3.3s-8.8,1.1-12.6,3.3
		s-6.7,5.3-8.9,9.3s-3.3,8.6-3.3,13.7c0,5.2,1.1,9.7,3.3,13.7s5.2,7.1,8.9,9.3c3.8,2.2,8,3.3,12.6,3.3
		C863.7,911.1,867.9,910,871.6,907.8z"/>
	<path class="st0" d="M966.6,906.3h-14.2v24.4h-26v-92h42c8.3,0,15.5,1.4,21.7,4.1c6.1,2.8,10.9,6.7,14.2,11.8s5,11.1,5,18.1
		c0,6.7-1.6,12.5-4.7,17.4c-3.1,4.9-7.6,8.8-13.3,11.6l19.8,28.9h-27.9L966.6,906.3z M979,862.8c-2.7-2.4-6.7-3.5-12.1-3.5h-14.5
		v26.9h14.5c5.3,0,9.4-1.2,12.1-3.5c2.7-2.3,4.1-5.6,4.1-9.9C983.1,868.5,981.7,865.2,979,862.8z"/>
	<path class="st0" d="M1086.4,908.8c3.7-1.4,7.1-3.6,10.3-6.7l14.1,15.3c-8.6,9.8-21.1,14.7-37.6,14.7c-10.3,0-19.4-2-27.3-6
		s-14-9.6-18.3-16.7c-4.3-7.1-6.4-15.2-6.4-24.2c0-8.9,2.1-17,6.4-24.2c4.2-7.2,10.1-12.8,17.5-16.8s15.7-6,25-6
		c8.7,0,16.6,1.8,23.7,5.5s12.8,9,17,15.9c4.2,7,6.4,15.2,6.4,24.7l-67.5,13.1c1.9,4.5,4.9,7.9,9.1,10.2c4.1,2.3,9.2,3.4,15.2,3.4
		C1078.5,910.9,1082.7,910.2,1086.4,908.8z M1053.6,864.6c-4.2,4.3-6.4,10.2-6.6,17.8l44.4-8.6c-1.2-4.7-3.8-8.5-7.6-11.4
		c-3.8-2.8-8.5-4.2-13.9-4.2C1063.2,858.2,1057.8,860.3,1053.6,864.6z"/>
</g>
<g>
	<g>
		<defs>
			<rect id="SVGID_1_" x="575.2" y="567.4" width="349.6" height="220.8"/>
		</defs>
		<clipPath id="SVGID_2_">
			<use xlink:href="#SVGID_1_"  style="overflow:visible;"/>
		</clipPath>
		<path class="st1" d="M920.5,694.7c-2.3-10.3-5.5-20.2-9.6-29.5c-9.2-20.6-21.6-38.1-37.4-52.6c-15.8-14.5-34.3-25.6-55.5-33.4
			c-21.3-7.9-43.9-11.8-67.9-11.8h-0.3c-24,0-46.6,3.9-67.9,11.8c-21.3,7.8-39.8,19-55.5,33.4c-15.8,14.5-28.2,32-37.4,52.6
			c-4.1,9.3-7.4,19.2-9.6,29.5c-5.7,26.2-5.7,54,0.7,80c0,0.1,0.1,0.2,0.1,0.4c0,0.1,0.1,0.2,0.1,0.3c0.9,3.7,1.9,7.3,3.1,10.8
			c0.4,1.3,1.6,2.1,2.9,2.1h25.9h32.3c1.1,0,1.8-1,1.5-2c-0.6-2.1-1.3-4.2-1.8-6.4c-13.1-49.6-6.5-110.3,27.2-151.7
			c9.1-11.1,20.3-20.4,33.1-27.3c13.2-7,28.4-11,45.5-11.8c0.1,0,0.2,0,0.3,0c17.1,0.9,32.3,4.8,45.5,11.8
			c15,8.1,27.6,19.2,37.7,33.3c29.8,42,35.4,97,22.6,145.6c-0.6,2.2-1.2,4.3-1.8,6.4c-0.3,1,0.4,2,1.5,2h32.3H914
			c1.3,0,2.5-0.8,2.9-2.1c1.1-3.5,2.2-7.1,3.1-10.8c0-0.1,0-0.2,0.1-0.3c0-0.1,0.1-0.3,0.1-0.4C926,748.7,926.6,720.8,920.5,694.7z"
			/>
	</g>
	<g>
		<defs>
			<rect id="SVGID_3_" x="575.2" y="567.4" width="349.6" height="220.8"/>
		</defs>
		<clipPath id="SVGID_4_">
			<use xlink:href="#SVGID_3_"  style="overflow:visible;"/>
		</clipPath>
		
			<linearGradient id="SVGID_5_" gradientUnits="userSpaceOnUse" x1="750.0031" y1="986.1243" x2="750.0031" y2="688.6648" gradientTransform="matrix(1 0 0 -1 0 1500)">
			<stop  offset="0.1461" style="stop-color:#FFFFFF"/>
			<stop  offset="0.6391" style="stop-color:#63879C"/>
			<stop  offset="0.9662" style="stop-color:#003A5D"/>
		</linearGradient>
		<path class="st2" d="M889.5,780.8c0,0.1,0,0.2-0.1,0.3c0,0.1,0,0.2-0.1,0.3c-0.4,1.9-0.8,3.8-1.2,5.6c-0.2,0.7-0.8,1.2-1.5,1.2
			h-30.8c-1,0-1.8-1-1.5-2c0.7-2.1,1.3-4.3,1.9-6.4c12.8-48.7,7.1-103.8-22.9-145.6c-10.1-14.1-22.6-25.2-37.7-33.3
			c-13.2-7.1-28.5-11-45.6-11.8l0,0c-17.2,0.8-32.4,4.8-45.6,11.8c-12.8,6.8-24,16.1-33.1,27.3c-33.6,41.4-40.2,102-27.2,151.7
			c0.5,2.2,1.2,4.3,1.8,6.4c0.3,1-0.4,2-1.5,2h-31.1c-0.7,0-1.3-0.5-1.5-1.2c-0.4-1.8-0.9-3.7-1.2-5.6c0-0.1,0-0.2-0.1-0.3l-0.1-0.3
			c-5.3-25.4-5.3-52.6-0.6-78.2c1.9-10.1,4.5-19.7,7.9-28.9c7.5-20.1,17.8-37.3,30.7-51.4c12.9-14.1,28.1-25.1,45.6-32.7
			c17.5-7.7,36.1-11.5,55.8-11.5h0.2c19.7,0,38.3,3.8,55.8,11.5c17.5,7.6,32.7,18.6,45.6,32.7c12.9,14.1,23.2,31.3,30.7,51.4
			c3.4,9.1,6,18.7,7.9,28.9C895,728.1,894.6,755.4,889.5,780.8z"/>
	</g>
	<g>
		<defs>
			<rect id="SVGID_6_" x="575.2" y="567.4" width="349.6" height="220.8"/>
		</defs>
		<clipPath id="SVGID_7_">
			<use xlink:href="#SVGID_6_"  style="overflow:visible;"/>
		</clipPath>
		<g class="st3">
			<path class="st0" d="M697.8,725l58.2,36.1c6.9,4.3,9,13.3,4.7,20.2s-13.3,9-20.2,4.7c-0.9-0.5-1.7-1.2-2.5-1.9l-49.2-47.6
				c-2.9-2.8-3-7.4-0.2-10.3C691.1,723.6,694.9,723.2,697.8,725z"/>
			
				<linearGradient id="SVGID_8_" gradientUnits="userSpaceOnUse" x1="706.2327" y1="762.9051" x2="743.7377" y2="730.3537" gradientTransform="matrix(1 0 0 -1 0 1500)">
				<stop  offset="0" style="stop-color:#FFFFFF;stop-opacity:0"/>
				<stop  offset="0.5808" style="stop-color:#63879C;stop-opacity:0.6011"/>
				<stop  offset="0.9662" style="stop-color:#003A5D"/>
			</linearGradient>
			<path class="st4" d="M697.8,725l58.2,36.1c6.9,4.3,9,13.3,4.7,20.2s-13.3,9-20.2,4.7c-0.9-0.5-1.7-1.2-2.5-1.9l-49.2-47.6
				c-2.9-2.8-3-7.4-0.2-10.3C691.1,723.6,694.9,723.2,697.8,725z"/>
		</g>
	</g>
	<g>
		<defs>
			<rect id="SVGID_9_" x="575.2" y="567.4" width="349.6" height="220.8"/>
		</defs>
		<clipPath id="SVGID_10_">
			<use xlink:href="#SVGID_9_"  style="overflow:visible;"/>
		</clipPath>
		<g class="st5">
			<path class="st0" d="M824.3,681.4l-62.4,99.5c-4.6,7.3-14.2,9.5-21.5,4.9s-9.5-14.2-4.9-21.4c0.4-0.6,0.8-1.2,1.2-1.7l75.2-90.3
				c2.7-3.3,7.5-3.7,10.8-1C825.7,673.9,826.3,678.2,824.3,681.4z"/>
			
				<linearGradient id="SVGID_11_" gradientUnits="userSpaceOnUse" x1="762.1068" y1="733.7482" x2="811.9955" y2="855.8162" gradientTransform="matrix(1 0 0 -1 0 1500)">
				<stop  offset="0" style="stop-color:#FFFFFF;stop-opacity:0"/>
				<stop  offset="0.5808" style="stop-color:#63879C;stop-opacity:0.6011"/>
				<stop  offset="0.9662" style="stop-color:#003A5D"/>
			</linearGradient>
			<path class="st6" d="M824.3,681.4l-62.4,99.5c-4.6,7.3-14.2,9.5-21.5,4.9s-9.5-14.2-4.9-21.4c0.4-0.6,0.8-1.2,1.2-1.7l75.2-90.3
				c2.7-3.3,7.5-3.7,10.8-1C825.7,673.9,826.3,678.2,824.3,681.4z"/>
		</g>
	</g>
</g>
</svg>
