<?xml version="1.0" encoding="utf-8"?>
<!-- Generator: Adobe Illustrator 24.0.1, SVG Export Plug-In . SVG Version: 6.00 Build 0)  -->
<svg version="1.1" id="Layer_1" xmlns="http://www.w3.org/2000/svg" xmlns:xlink="http://www.w3.org/1999/xlink" x="0px" y="0px"
	 viewBox="0 0 1500 1500" style="enable-background:new 0 0 1500 1500;" xml:space="preserve">
<style type="text/css">
	.st0{fill:#003A5D;}
</style>
<g>
	<path class="st0" d="M411.2,724.7h-28.3v-20.6h82.4v20.6h-28.1v71.4h-26V724.7z"/>
	<path class="st0" d="M537.8,774.1c3.7-1.4,7.1-3.6,10.3-6.7l14.1,15.3c-8.6,9.8-21.1,14.7-37.6,14.7c-10.3,0-19.4-2-27.3-6
		s-14-9.6-18.3-16.7c-4.3-7.1-6.4-15.2-6.4-24.2c0-8.9,2.1-17,6.4-24.2c4.2-7.2,10.1-12.8,17.5-16.8s15.7-6,25-6
		c8.7,0,16.6,1.8,23.7,5.5c7.1,3.7,12.8,9,17,15.9s6.4,15.2,6.4,24.7l-67.7,13.1c1.9,4.5,4.9,7.9,9.1,10.2c4.1,2.3,9.2,3.4,15.2,3.4
		C529.9,776.2,534.1,775.5,537.8,774.1z M505,729.9c-4.2,4.3-6.4,10.2-6.6,17.8l44.4-8.6c-1.2-4.7-3.8-8.5-7.6-11.4
		c-3.8-2.8-8.5-4.2-13.9-4.2C514.6,723.5,509.1,725.6,505,729.9z"/>
	<path class="st0" d="M668.1,796.1l-0.2-48.8L644.2,787h-11.6l-23.5-38.4V796h-24v-92h21.4l32.3,53.1l31.5-53.1h21.4l0.3,92
		L668.1,796.1L668.1,796.1z"/>
	<path class="st0" d="M776.8,708.2c6.1,2.8,10.9,6.7,14.2,11.8s5,11.1,5,18.1c0,6.9-1.7,12.9-5,18s-8.1,9-14.2,11.8
		c-6.1,2.8-13.4,4.1-21.7,4.1h-16v24h-26v-92h42C763.4,704.1,770.6,705.5,776.8,708.2z M765.6,748c2.7-2.3,4.1-5.6,4.1-9.9
		c0-4.3-1.4-7.6-4.1-10c-2.7-2.4-6.7-3.5-12.1-3.5H739v26.9h14.5C758.9,751.5,762.9,750.4,765.6,748z"/>
	<path class="st0" d="M832.7,791.7c-7.8-4.1-13.8-9.8-18.3-17.1c-4.4-7.3-6.6-15.5-6.6-24.6s2.2-17.3,6.6-24.6
		c4.4-7.3,10.5-13,18.3-17.1s16.5-6.2,26.2-6.2s18.5,2.1,26.2,6.2c7.8,4.1,13.8,9.8,18.3,17.1c4.4,7.3,6.6,15.5,6.6,24.6
		s-2.2,17.3-6.6,24.6c-4.4,7.3-10.5,13-18.3,17.1s-16.5,6.2-26.2,6.2C849.2,797.9,840.4,795.8,832.7,791.7z M871.5,773.1
		c3.8-2.2,6.7-5.3,8.9-9.3s3.3-8.6,3.3-13.7c0-5.2-1.1-9.7-3.3-13.7s-5.2-7.1-8.9-9.3c-3.8-2.2-8-3.3-12.6-3.3s-8.8,1.1-12.6,3.3
		s-6.7,5.3-8.9,9.3s-3.3,8.6-3.3,13.7c0,5.2,1.1,9.7,3.3,13.7s5.2,7.1,8.9,9.3c3.8,2.2,8,3.3,12.6,3.3
		C863.6,776.4,867.8,775.3,871.5,773.1z"/>
	<path class="st0" d="M966.5,771.6h-14.2V796h-26v-92h42c8.3,0,15.5,1.4,21.7,4.1c6.1,2.8,10.9,6.7,14.2,11.8s5,11.1,5,18.1
		c0,6.7-1.6,12.5-4.7,17.4c-3.1,4.9-7.6,8.8-13.3,11.6l19.8,28.9h-27.9L966.5,771.6z M978.9,728.1c-2.7-2.4-6.7-3.5-12.1-3.5h-14.5
		v26.9h14.5c5.3,0,9.4-1.2,12.1-3.5c2.7-2.3,4.1-5.6,4.1-9.9C983,733.8,981.6,730.5,978.9,728.1z"/>
	<path class="st0" d="M1086.3,774.1c3.7-1.4,7.1-3.6,10.3-6.7l14.1,15.3c-8.6,9.8-21.1,14.7-37.6,14.7c-10.3,0-19.4-2-27.3-6
		s-14-9.6-18.3-16.7c-4.3-7.1-6.4-15.2-6.4-24.2c0-8.9,2.1-17,6.4-24.2c4.2-7.2,10.1-12.8,17.5-16.8s15.7-6,25-6
		c8.7,0,16.6,1.8,23.7,5.5s12.8,9,17,15.9c4.2,7,6.4,15.2,6.4,24.7l-67.5,13.1c1.9,4.5,4.9,7.9,9.1,10.2c4.1,2.3,9.2,3.4,15.2,3.4
		C1078.4,776.2,1082.6,775.5,1086.3,774.1z M1053.5,729.9c-4.2,4.3-6.4,10.2-6.6,17.8l44.4-8.6c-1.2-4.7-3.8-8.5-7.6-11.4
		c-3.8-2.8-8.5-4.2-13.9-4.2C1063.1,723.5,1057.7,725.6,1053.5,729.9z"/>
</g>
</svg>
